<svg width="25" height="24" viewBox="0 0 25 24" fill="none" xmlns="http://www.w3.org/2000/svg">
<path d="M15.7143 17H20.7143L19.3093 15.595C19.1206 15.4063 18.971 15.1822 18.8689 14.9357C18.7668 14.6891 18.7143 14.4249 18.7143 14.158V11C18.7144 9.75894 18.3299 8.54834 17.6135 7.53489C16.8972 6.52144 15.8843 5.75496 14.7143 5.341V5C14.7143 4.46957 14.5036 3.96086 14.1285 3.58579C13.7534 3.21071 13.2447 3 12.7143 3C12.1839 3 11.6752 3.21071 11.3001 3.58579C10.925 3.96086 10.7143 4.46957 10.7143 5V5.341C8.38429 6.165 6.71429 8.388 6.71429 11V14.159C6.71429 14.697 6.50029 15.214 6.11929 15.595L4.71429 17H9.71429M15.7143 17V18C15.7143 18.7956 15.3982 19.5587 14.8356 20.1213C14.273 20.6839 13.5099 21 12.7143 21C11.9186 21 11.1556 20.6839 10.593 20.1213C10.0304 19.5587 9.71429 18.7956 9.71429 18V17M15.7143 17H9.71429" stroke="#FAFAFA" stroke-width="2" stroke-linecap="round" stroke-linejoin="round"/>
</svg>
