<svg width="24" height="24" viewBox="0 0 24 24" fill="none" xmlns="http://www.w3.org/2000/svg">
<g clip-path="url(#clip0_1_363)">
<path d="M18 1.5C17.6016 1.5 17.2207 1.6582 16.9395 1.93945C16.3535 2.52539 16.3535 3.47461 16.9395 4.06055L18.8789 6H7.5C6.67383 6 6 6.67383 6 7.5C6 8.32617 6.67383 9 7.5 9H18.8789L16.9395 10.9395C16.3535 11.5254 16.3535 12.4746 16.9395 13.0605C17.5254 13.6465 18.4746 13.6465 19.0605 13.0605L23.5605 8.56055C24.1465 7.97461 24.1465 7.02539 23.5605 6.43945L19.0605 1.93945C18.7793 1.6582 18.3984 1.5 18 1.5ZM6 10.5C5.61328 10.5 5.23242 10.6465 4.93945 10.9395L0.439453 15.4395C-0.146484 16.0254 -0.146484 16.9746 0.439453 17.5605L4.93945 22.0605C5.2207 22.3418 5.60156 22.5 6 22.5C6.39844 22.5 6.7793 22.3418 7.06055 22.0605C7.64648 21.4746 7.64648 20.5254 7.06055 19.9395L5.12109 18H16.5C17.3262 18 18 17.3262 18 16.5C18 15.6738 17.3262 15 16.5 15H5.12109L7.06055 13.0605C7.64648 12.4746 7.64648 11.5254 7.06055 10.9395C6.76758 10.6465 6.38672 10.5 6 10.5Z" fill="#F6DB56"/>
</g>
<defs>
<clipPath id="clip0_1_363">
<rect width="24" height="24" fill="white"/>
</clipPath>
</defs>
</svg>
