<svg width="120" height="120" viewBox="0 0 174 151" fill="none" xmlns="http://www.w3.org/2000/svg">
<g filter="url(#filter0_df_1_339)">
<circle cx="79" cy="79" r="48" fill="url(#paint0_radial_1_339)"/>
</g>
<circle cx="79" cy="79" r="38.7097" fill="url(#paint1_radial_1_339)" fill-opacity="0.5"/>
<circle cx="79" cy="79" r="38.7097" stroke="url(#paint2_linear_1_339)" stroke-width="2.32258" style="mix-blend-mode:overlay"/>
<path d="M61.803 86.1905C60.879 86.1905 60.051 86.0405 59.319 85.7405C58.587 85.4405 57.999 84.9965 57.555 84.4085C57.123 83.8205 56.895 83.1125 56.871 82.2845H60.147C60.195 82.7525 60.357 83.1125 60.633 83.3645C60.909 83.6045 61.269 83.7245 61.713 83.7245C62.169 83.7245 62.529 83.6225 62.793 83.4185C63.057 83.2025 63.189 82.9085 63.189 82.5365C63.189 82.2245 63.081 81.9665 62.865 81.7625C62.661 81.5585 62.403 81.3905 62.091 81.2585C61.791 81.1265 61.359 80.9765 60.795 80.8085C59.979 80.5565 59.313 80.3045 58.797 80.0525C58.281 79.8005 57.837 79.4285 57.465 78.9365C57.093 78.4445 56.907 77.8025 56.907 77.0105C56.907 75.8345 57.333 74.9165 58.185 74.2565C59.037 73.5845 60.147 73.2485 61.515 73.2485C62.907 73.2485 64.029 73.5845 64.881 74.2565C65.733 74.9165 66.189 75.8405 66.249 77.0285H62.919C62.895 76.6205 62.745 76.3025 62.469 76.0745C62.193 75.8345 61.839 75.7145 61.407 75.7145C61.035 75.7145 60.735 75.8165 60.507 76.0205C60.279 76.2125 60.165 76.4945 60.165 76.8665C60.165 77.2745 60.357 77.5925 60.741 77.8205C61.125 78.0485 61.725 78.2945 62.541 78.5585C63.357 78.8345 64.017 79.0985 64.521 79.3505C65.037 79.6025 65.481 79.9685 65.853 80.4485C66.225 80.9285 66.411 81.5465 66.411 82.3025C66.411 83.0225 66.225 83.6765 65.853 84.2645C65.493 84.8525 64.965 85.3205 64.269 85.6685C63.573 86.0165 62.751 86.1905 61.803 86.1905ZM67.6932 81.0425C67.6932 79.9985 67.9032 79.0865 68.3232 78.3065C68.7552 77.5265 69.3492 76.9265 70.1052 76.5065C70.8732 76.0865 71.7492 75.8765 72.7332 75.8765C73.9932 75.8765 75.0432 76.2065 75.8832 76.8665C76.7352 77.5265 77.2932 78.4565 77.5572 79.6565H74.2812C74.0052 78.8885 73.4712 78.5045 72.6792 78.5045C72.1152 78.5045 71.6652 78.7265 71.3292 79.1705C70.9932 79.6025 70.8252 80.2265 70.8252 81.0425C70.8252 81.8585 70.9932 82.4885 71.3292 82.9325C71.6652 83.3645 72.1152 83.5805 72.6792 83.5805C73.4712 83.5805 74.0052 83.1965 74.2812 82.4285H77.5572C77.2932 83.6045 76.7352 84.5285 75.8832 85.2005C75.0312 85.8725 73.9812 86.2085 72.7332 86.2085C71.7492 86.2085 70.8732 85.9985 70.1052 85.5785C69.3492 85.1585 68.7552 84.5585 68.3232 83.7785C67.9032 82.9985 67.6932 82.0865 67.6932 81.0425ZM78.5917 81.0245C78.5917 79.9925 78.7837 79.0865 79.1677 78.3065C79.5637 77.5265 80.0977 76.9265 80.7697 76.5065C81.4417 76.0865 82.1917 75.8765 83.0197 75.8765C83.7277 75.8765 84.3457 76.0205 84.8737 76.3085C85.4137 76.5965 85.8277 76.9745 86.1157 77.4425V76.0205H89.1937V86.0645H86.1157V84.6425C85.8157 85.1105 85.3957 85.4885 84.8557 85.7765C84.3277 86.0645 83.7097 86.2085 83.0017 86.2085C82.1857 86.2085 81.4417 85.9985 80.7697 85.5785C80.0977 85.1465 79.5637 84.5405 79.1677 83.7605C78.7837 82.9685 78.5917 82.0565 78.5917 81.0245ZM86.1157 81.0425C86.1157 80.2745 85.8997 79.6685 85.4677 79.2245C85.0477 78.7805 84.5317 78.5585 83.9197 78.5585C83.3077 78.5585 82.7857 78.7805 82.3537 79.2245C81.9337 79.6565 81.7237 80.2565 81.7237 81.0245C81.7237 81.7925 81.9337 82.4045 82.3537 82.8605C82.7857 83.3045 83.3077 83.5265 83.9197 83.5265C84.5317 83.5265 85.0477 83.3045 85.4677 82.8605C85.8997 82.4165 86.1157 81.8105 86.1157 81.0425ZM97.5405 75.9125C98.7165 75.9125 99.6525 76.2965 100.348 77.0645C101.056 77.8205 101.41 78.8645 101.41 80.1965V86.0645H98.3505V80.6105C98.3505 79.9385 98.1765 79.4165 97.8285 79.0445C97.4805 78.6725 97.0125 78.4865 96.4245 78.4865C95.8365 78.4865 95.3685 78.6725 95.0205 79.0445C94.6725 79.4165 94.4985 79.9385 94.4985 80.6105V86.0645H91.4205V76.0205H94.4985V77.3525C94.8105 76.9085 95.2305 76.5605 95.7585 76.3085C96.2865 76.0445 96.8805 75.9125 97.5405 75.9125Z" fill="#F6DB56"/>
<defs>
<filter id="filter0_df_1_339" x="0.0322571" y="0.0322571" width="173.419" height="173.419" filterUnits="userSpaceOnUse" color-interpolation-filters="sRGB">
<feFlood flood-opacity="0" result="BackgroundImageFix"/>
<feColorMatrix in="SourceAlpha" type="matrix" values="0 0 0 0 0 0 0 0 0 0 0 0 0 0 0 0 0 0 127 0" result="hardAlpha"/>
<feOffset dx="15.4839" dy="15.4839"/>
<feGaussianBlur stdDeviation="15.4839"/>
<feComposite in2="hardAlpha" operator="out"/>
<feColorMatrix type="matrix" values="0 0 0 0 0 0 0 0 0 0 0 0 0 0 0 0 0 0 0.25 0"/>
<feBlend mode="normal" in2="BackgroundImageFix" result="effect1_dropShadow_1_339"/>
<feBlend mode="normal" in="SourceGraphic" in2="effect1_dropShadow_1_339" result="shape"/>
<feGaussianBlur stdDeviation="15.4839" result="effect2_foregroundBlur_1_339"/>
</filter>
<radialGradient id="paint0_radial_1_339" cx="0" cy="0" r="1" gradientUnits="userSpaceOnUse" gradientTransform="translate(58.0968 41.8387) rotate(46.017) scale(92.5315)">
<stop stop-color="#5D6167"/>
<stop offset="1" stop-color="#13151A"/>
</radialGradient>
<radialGradient id="paint1_radial_1_339" cx="0" cy="0" r="1" gradientUnits="userSpaceOnUse" gradientTransform="translate(75.129 60.4193) rotate(38.6598) scale(44.6153)">
<stop stop-color="#545659"/>
<stop offset="1" stop-color="#232629"/>
</radialGradient>
<linearGradient id="paint2_linear_1_339" x1="53.4516" y1="61.1935" x2="111.516" y2="132.419" gradientUnits="userSpaceOnUse">
<stop stop-opacity="0.45"/>
<stop offset="0.992881" stop-color="white"/>
</linearGradient>
</defs>
</svg>
