<svg width="14" height="14" viewBox="0 0 14 14" fill="none" xmlns="http://www.w3.org/2000/svg">
<path d="M5.59727 0.0300751C5.25821 0.112106 4.93828 0.396482 4.82617 0.713669C4.80157 0.77656 4.74961 1.03906 4.70586 1.29883C4.59922 1.92773 4.50352 2.1082 4.18907 2.26132C4.06328 2.32148 4.00039 2.33515 3.8418 2.33515C3.675 2.33242 3.59571 2.31054 3.19922 2.15742C2.75078 1.98515 2.74805 1.98515 2.46094 1.98242C2.19571 1.98242 2.16016 1.98789 1.9961 2.06718C1.89766 2.11367 1.76367 2.20664 1.69532 2.27773C1.55039 2.42539 0.347268 4.48437 0.265237 4.73047C0.194143 4.93828 0.213284 5.26914 0.306253 5.47422C0.407424 5.6875 0.505862 5.79687 0.894143 6.11406C1.08555 6.27265 1.27149 6.43945 1.30703 6.48047C1.54219 6.77851 1.54766 7.21328 1.31524 7.50859C1.28516 7.54687 1.09649 7.71367 0.896878 7.88047C0.500393 8.20586 0.412893 8.30429 0.308987 8.52578C0.213284 8.73086 0.194143 9.06172 0.262503 9.26953C0.292581 9.35156 0.596096 9.90937 0.943362 10.5082C1.62696 11.6949 1.69532 11.7879 1.9961 11.9328C2.16016 12.0121 2.19571 12.0176 2.46094 12.0176C2.74805 12.0148 2.75078 12.0148 3.19922 11.8426C3.59571 11.6895 3.675 11.6676 3.8418 11.6648C4.16172 11.6621 4.41875 11.8234 4.56914 12.1187C4.60469 12.1871 4.65664 12.4141 4.70586 12.7012C4.79336 13.2289 4.82891 13.3465 4.94649 13.5187C5.06133 13.6855 5.20625 13.8031 5.41407 13.9016L5.5918 13.9863L6.91524 13.9945C7.75196 14 8.28789 13.9918 8.37266 13.9754C8.70352 13.9043 8.96875 13.6965 9.11914 13.3902C9.19571 13.2289 9.22852 13.1059 9.29414 12.7121C9.38164 12.1762 9.4418 12.0176 9.61407 11.8672C9.77813 11.725 9.93672 11.6648 10.1582 11.6676C10.3277 11.6676 10.4043 11.6895 10.8008 11.8426C11.2492 12.0148 11.252 12.0148 11.5391 12.0176C11.8043 12.0176 11.8398 12.0121 12.0039 11.9328C12.302 11.7879 12.373 11.6922 13.0512 10.5219C13.3902 9.93125 13.691 9.39804 13.7184 9.33789C13.7539 9.25859 13.7648 9.15469 13.7676 8.95508C13.7676 8.71719 13.7594 8.6625 13.6965 8.53125C13.5898 8.30976 13.4996 8.20859 13.0949 7.875C12.7039 7.54961 12.6027 7.42656 12.5371 7.21054C12.4852 7.03828 12.4852 6.96172 12.5371 6.78945C12.6027 6.5707 12.7094 6.44219 13.0949 6.125C13.4941 5.79687 13.5898 5.69023 13.6965 5.46875C13.7594 5.3375 13.7676 5.28281 13.7676 5.04492C13.7648 4.84531 13.7539 4.7414 13.7184 4.66211C13.691 4.60195 13.3902 4.06875 13.0512 3.47812C12.373 2.30781 12.302 2.21211 12.0039 2.06718C11.8398 1.98789 11.8043 1.98242 11.5391 1.98242C11.252 1.98515 11.2492 1.98515 10.8008 2.15742C10.4043 2.31054 10.325 2.33242 10.1582 2.33515C9.83828 2.33789 9.58125 2.17656 9.43086 1.88125C9.39805 1.81562 9.34336 1.58593 9.29414 1.30429C9.25313 1.04726 9.19571 0.779294 9.16836 0.705466C9.07539 0.442966 8.81563 0.1832 8.53946 0.0683565C8.41641 0.0164032 8.33164 0.013669 7.05469 0.00820065C6.31094 0.00546551 5.65469 0.0164032 5.59727 0.0300751ZM8.14844 1.09922C8.14844 1.10468 8.18399 1.31797 8.23047 1.57773C8.34805 2.25586 8.48203 2.55117 8.8293 2.8875C9.21485 3.26484 9.77539 3.47265 10.2813 3.43164C10.5465 3.40976 10.6203 3.39062 11.1234 3.20742C11.3531 3.12265 11.5445 3.05976 11.5473 3.06523C11.5527 3.0707 11.8125 3.51914 12.1242 4.05781C12.5754 4.84258 12.682 5.04765 12.6547 5.07226C12.6356 5.08867 12.4797 5.21719 12.3129 5.35664C11.9191 5.67929 11.7606 5.85976 11.6238 6.13594C11.4707 6.43945 11.4215 6.65273 11.4215 7C11.4215 7.34726 11.4707 7.56054 11.6238 7.86406C11.7606 8.14023 11.9191 8.3207 12.3129 8.64336C12.4797 8.78281 12.6356 8.91133 12.6547 8.92773C12.682 8.95234 12.5727 9.16015 12.1242 9.94218C11.8125 10.4809 11.5527 10.9293 11.5473 10.9348C11.5445 10.9402 11.3531 10.8773 11.1234 10.7926C10.6203 10.6094 10.5465 10.5902 10.2813 10.5684C9.77539 10.5273 9.21211 10.7379 8.82657 11.1098C8.48477 11.4461 8.34532 11.7469 8.23047 12.4223C8.18399 12.682 8.14844 12.8953 8.14844 12.898C8.14844 12.9035 7.63164 12.9062 7 12.9062C6.36836 12.9062 5.85157 12.9035 5.85157 12.898C5.85157 12.8953 5.81602 12.682 5.76953 12.4223C5.65469 11.7469 5.52071 11.457 5.17617 11.1152C4.79336 10.7379 4.22735 10.5273 3.71875 10.5684C3.45352 10.5902 3.37969 10.6094 2.87657 10.7926C2.64688 10.8773 2.45547 10.9402 2.45274 10.9348C2.36797 10.8281 1.31797 8.95508 1.33164 8.9414C1.34258 8.93047 1.50117 8.79922 1.68164 8.64883C2.06446 8.33164 2.20938 8.17578 2.3461 7.92969C2.51016 7.63711 2.57578 7.3664 2.57578 7C2.57578 6.63359 2.51016 6.36289 2.3461 6.07031C2.20938 5.82422 2.06446 5.66836 1.68164 5.35117C1.50117 5.20078 1.34258 5.06953 1.33164 5.05859C1.31797 5.04492 2.36797 3.17187 2.45274 3.06523C2.45547 3.05976 2.64688 3.12265 2.87657 3.20742C3.44258 3.41523 3.49727 3.42617 3.82813 3.4289C4.16992 3.4289 4.38047 3.37969 4.68946 3.22656C4.93828 3.10351 5.12696 2.95859 5.31016 2.74258C5.55899 2.44726 5.67657 2.15195 5.76953 1.58593C5.79961 1.39726 5.83242 1.21133 5.84063 1.16757L5.85703 1.09375H7.00274C7.63164 1.09375 8.14844 1.09648 8.14844 1.09922Z" fill="#000"/>
<path d="M6.65819 4.32307C6.27538 4.37229 5.82694 4.54455 5.47147 4.77971C5.27186 4.91096 4.90819 5.27737 4.77147 5.48244C4.14803 6.42854 4.14803 7.57151 4.77147 8.5176C4.90819 8.72268 5.27186 9.08908 5.47147 9.22033C6.51327 9.90666 7.79022 9.84651 8.72812 9.06721C9.55116 8.38635 9.8957 7.23244 9.57851 6.22072C9.27499 5.24729 8.47655 4.53088 7.49765 4.34768C7.27343 4.30666 6.86874 4.29299 6.65819 4.32307ZM7.47851 5.47151C7.95702 5.61916 8.37812 6.04299 8.53671 6.53518C8.61601 6.78401 8.61601 7.21604 8.53671 7.46486C8.37538 7.96252 7.96249 8.37541 7.46483 8.53401C7.21327 8.61604 6.80858 8.61604 6.54882 8.53674C6.04296 8.38088 5.6246 7.96799 5.46327 7.46486C5.38397 7.21604 5.38397 6.78401 5.466 6.53518C5.65468 5.94182 6.20155 5.48244 6.80858 5.40588C6.96991 5.38401 7.30624 5.41682 7.47851 5.47151Z" fill="#000"/>
</svg>
