<svg width="24" height="24" viewBox="0 0 24 24" fill="none" xmlns="http://www.w3.org/2000/svg">
<path d="M17.2082 11.5664L15.7721 11.5569L15.7816 9.52088C15.7627 8.88314 15.0352 8.61387 14.6006 9.09572L12.0354 12.2183L9.49864 9.07682C9.07347 8.5808 8.32708 8.88786 8.31291 9.49253L8.30346 11.5239L6.86736 11.5144C6.86263 11.5144 6.85791 11.5144 6.85319 11.5144C4.99665 11.5806 4.05184 12.8608 3.88178 14.4291V23.3292C3.87705 23.6599 4.13687 23.9858 4.54786 24H19.4096C19.7781 24 20.1182 23.7024 20.1182 23.3386V14.5094C20.1277 12.8938 18.8191 11.5711 17.2082 11.5664ZM8.07198 22.6631V16.3518V16.3471C8.07198 15.9786 7.77437 15.681 7.41062 15.681H7.4059C7.03742 15.681 6.70674 15.9786 6.70202 16.3424V22.6584H5.25647V14.4339C5.25647 13.7111 5.77611 12.8844 6.84846 12.8466C6.85318 12.8466 6.85319 12.8466 6.85791 12.8466L8.9601 12.8608C9.30968 12.8702 9.62618 12.5773 9.63091 12.1994L9.63563 11.3727L11.3599 13.5079V22.6631H8.07198ZM18.7483 22.6631H17.2508L17.2885 16.399V16.3943C17.2885 16.0259 16.9909 15.7282 16.6272 15.7282H16.6225C16.254 15.7282 15.9564 16.0259 15.9564 16.3896L15.9186 22.6584H12.6401V13.5127L14.44 11.3916L14.4352 12.2136C14.4352 12.582 14.7281 12.8797 15.0966 12.8844L17.1988 12.8986C18.0775 12.9033 18.7908 13.6213 18.7861 14.5L18.7483 22.6631Z" fill="#F6DB56"/>
<path d="M17.4444 4.79214C17.3877 4.42839 17.0429 4.18274 16.6839 4.23943C16.2445 4.31029 15.8099 4.36698 15.3706 4.41422L15.0068 1.44754C14.9029 0.502734 13.9628 -0.168077 13.0039 0.0397798C12.3378 0.176776 11.667 0.176776 11.0009 0.0397798C9.93797 -0.186973 9.08764 0.59249 8.99789 1.44754L8.63414 4.41422C8.1948 4.36226 7.75547 4.30557 7.32086 4.23943C6.96183 4.18274 6.61698 4.42839 6.56029 4.79214C6.5036 5.15589 6.74925 5.49602 7.113 5.55271C10.2356 6.07708 13.5046 6.05346 16.8917 5.55271C17.2555 5.49602 17.5058 5.15589 17.4444 4.79214ZM9.96159 4.53232L10.3206 1.60815C10.382 1.41447 10.5001 1.30582 10.7269 1.34361C11.5725 1.5184 12.4275 1.5184 13.2731 1.34361C13.4715 1.30582 13.651 1.40975 13.6794 1.60815L14.0384 4.53232C12.6826 4.6268 11.3221 4.6268 9.96159 4.53232Z" fill="#F6DB56"/>
<path d="M10.5426 7.05495H10.0277C9.65925 7.05495 9.36163 7.35256 9.36163 7.72103C9.36163 8.08951 9.65925 8.38712 10.0277 8.38712H10.5426C10.9111 8.38712 11.2087 8.08951 11.2087 7.72103C11.2087 7.35256 10.9111 7.05495 10.5426 7.05495Z" fill="#F6DB56"/>
<path d="M13.977 7.05495H13.4621C13.0936 7.05495 12.796 7.35256 12.796 7.72103C12.796 8.08951 13.0936 8.38712 13.4621 8.38712H13.977C14.3455 8.38712 14.6431 8.08951 14.6431 7.72103C14.6431 7.35256 14.3455 7.05495 13.977 7.05495Z" fill="#F6DB56"/>
</svg>
