<svg width="24" height="24" viewBox="0 0 24 24" fill="none" xmlns="http://www.w3.org/2000/svg">
<path d="M18.1494 3.19313C17.9513 3.19313 17.759 3.21769 17.5752 3.26395V2.59875C17.5752 1.30397 16.5218 0.250594 15.2271 0.250594C14.7446 0.250594 14.2959 0.396984 13.9223 0.647203C13.5008 0.246187 12.9314 0 12.3051 0C11.2344 0 10.329 0.720234 10.0476 1.70166C9.80063 1.6132 9.53499 1.56516 9.258 1.56516C7.96322 1.56516 6.90985 2.61853 6.90985 3.91331V7.80319C6.62878 7.69388 6.32353 7.63369 6.00432 7.63369C4.62478 7.63369 3.50246 8.75569 3.50246 10.1352V14.8084C3.50246 17.7756 5.30832 23.5105 12.1422 23.9795C12.3426 23.993 12.5447 24 12.7428 24C17.0187 24 20.4976 20.6073 20.4976 16.4367V5.54128C20.4975 4.2465 19.4442 3.19313 18.1494 3.19313ZM12.7428 22.685C12.5747 22.685 12.4049 22.6791 12.232 22.6674C5.91989 22.2344 4.81739 16.7298 4.81739 14.8084V10.1352C4.81739 9.47991 5.349 8.94863 6.00427 8.94863C6.65958 8.94863 7.19119 9.47991 7.19119 10.1352V13.7444H8.22478V3.91336C8.22478 3.3428 8.68744 2.88014 9.25796 2.88014C9.82852 2.88014 10.2912 3.3428 10.2912 3.91336V11.0833H11.2719V2.34816C11.2719 1.77759 11.7345 1.31498 12.3051 1.31498C12.8756 1.31498 13.3383 1.77764 13.3383 2.34816V11.0833H14.1939V2.59875C14.1939 2.02819 14.6565 1.56558 15.2271 1.56558C15.7976 1.56558 16.2603 2.02823 16.2603 2.59875V11.0833H17.1163V5.54128C17.1163 4.97072 17.5789 4.50806 18.1494 4.50806C18.72 4.50806 19.1827 4.97072 19.1827 5.54128V16.4367C19.1826 19.6757 16.5677 22.685 12.7428 22.685Z" fill="#F6DB56"/>
</svg>
