<svg width="24" height="24" viewBox="0 0 24 24" fill="none" xmlns="http://www.w3.org/2000/svg">
<g clip-path="url(#clip0_1_371)">
<path d="M22.667 10.6964C22.1045 10.6964 21.6234 11.0471 21.428 11.5408H19.6933C19.5894 9.78176 18.8931 8.17962 17.8012 6.93145L19.0322 5.70048C19.1978 5.77247 19.3776 5.81117 19.5635 5.81117C19.9196 5.81117 20.2543 5.67253 20.5061 5.42072C21.0259 4.90094 21.0259 4.05528 20.5061 3.5355C20.2544 3.28369 19.9196 3.14505 19.5635 3.14505C19.2074 3.14505 18.8727 3.28369 18.6209 3.5355C18.2232 3.93318 18.131 4.52137 18.3419 5.0087L17.1126 6.23798C15.8721 5.13601 14.2748 4.42768 12.5181 4.31054V2.57204C13.0118 2.37659 13.3625 1.89544 13.3625 1.33306C13.3625 0.59802 12.7645 6.10352e-05 12.0295 6.10352e-05C11.2945 6.10352e-05 10.6965 0.598085 10.6965 1.33306C10.6965 1.89551 11.0471 2.37659 11.5408 2.57204V4.30676C9.78176 4.41068 8.17962 5.10695 6.93151 6.19882L5.69976 4.96713C5.91072 4.4798 5.8184 3.89162 5.42072 3.49393C5.16897 3.24212 4.83423 3.10348 4.47811 3.10348C4.12199 3.10348 3.78724 3.24212 3.5355 3.49393C3.01579 4.01371 3.01579 4.85938 3.5355 5.37915C3.78724 5.63096 4.12199 5.7696 4.47811 5.7696C4.66412 5.7696 4.84387 5.7309 5.00942 5.65891L6.23791 6.88741C5.13594 8.12795 4.42762 9.72527 4.31047 11.4819H2.57204C2.37659 10.9882 1.89544 10.6376 1.33306 10.6376C0.59802 10.6376 6.10352e-05 11.2356 6.10352e-05 11.9706C6.10352e-05 12.7056 0.598085 13.3036 1.33306 13.3036C1.89551 13.3036 2.37665 12.953 2.57204 12.4592H4.30676C4.41068 14.2183 5.10695 15.8204 6.19882 17.0686L4.96779 18.2995C4.80224 18.2275 4.62242 18.1888 4.43648 18.1888C4.08043 18.1888 3.74568 18.3275 3.49387 18.5793C2.97416 19.0991 2.97416 19.9447 3.49387 20.4645C3.74561 20.7163 4.08036 20.8549 4.43648 20.8549C4.79259 20.8549 5.12734 20.7163 5.37909 20.4645C5.77677 20.0668 5.86903 19.4786 5.65813 18.9913L6.88734 17.7621C8.12789 18.864 9.7252 19.5723 11.4819 19.6895V21.428C10.9882 21.6235 10.6375 22.1046 10.6375 22.667C10.6375 23.402 11.2355 24 11.9706 24C12.7056 24 13.3036 23.402 13.3036 22.667C13.3036 22.1045 12.9529 21.6235 12.4592 21.428V19.6933C14.2182 19.5894 15.8204 18.8931 17.0685 17.8012L18.3002 19.0329C18.0893 19.5203 18.1816 20.1084 18.5793 20.5061C18.831 20.7579 19.1658 20.8966 19.5219 20.8966C19.878 20.8966 20.2127 20.7579 20.4645 20.5061C20.9843 19.9863 20.9843 19.1407 20.4645 18.6209C20.2127 18.3691 19.878 18.2305 19.5219 18.2305C19.358 18.2305 19.199 18.2611 19.0501 18.3174L18.5489 17.8162L18.5073 17.8579L17.7621 17.1126C18.864 15.8721 19.5723 14.2749 19.6895 12.5181H21.428C21.6235 13.0118 22.1046 13.3625 22.667 13.3625C23.402 13.3625 24 12.7645 24 12.0295C24 11.2944 23.402 10.6964 22.667 10.6964ZM19.312 4.22656C19.3791 4.15939 19.4685 4.12232 19.5635 4.12238C19.6585 4.12238 19.7479 4.15939 19.8151 4.22656C19.9538 4.36527 19.9538 4.59095 19.8151 4.72966C19.7479 4.7969 19.6585 4.8339 19.5635 4.8339C19.4685 4.8339 19.3791 4.7969 19.312 4.72972C19.1733 4.59102 19.1733 4.36527 19.312 4.22656ZM12.0295 0.977266C12.2256 0.977266 12.3852 1.13689 12.3852 1.33299C12.3852 1.5291 12.2256 1.68872 12.0295 1.68872C11.8334 1.68872 11.6737 1.5291 11.6737 1.33299C11.6737 1.13689 11.8333 0.977266 12.0295 0.977266ZM4.22662 4.68809C4.08792 4.54939 4.08792 4.32364 4.22662 4.18493C4.29386 4.11776 4.38318 4.08069 4.47817 4.08075C4.57316 4.08075 4.66255 4.11776 4.72972 4.18493C4.86843 4.32364 4.86843 4.54932 4.72972 4.68809C4.66249 4.75526 4.57316 4.79233 4.47817 4.79233C4.38318 4.79233 4.2938 4.75526 4.22662 4.68809ZM1.33299 12.3263C1.13682 12.3263 0.977266 12.1667 0.977266 11.9705C0.977266 11.7743 1.13689 11.6148 1.33299 11.6148C1.5291 11.6148 1.68872 11.7744 1.68872 11.9705C1.68878 12.1667 1.52916 12.3263 1.33299 12.3263ZM4.68809 19.7734C4.62092 19.8406 4.53153 19.8777 4.43654 19.8777C4.34155 19.8777 4.25216 19.8407 4.18499 19.7734C4.04629 19.6347 4.04629 19.409 4.18499 19.2703C4.25216 19.2031 4.34155 19.1661 4.43654 19.1661C4.53153 19.1661 4.62092 19.2031 4.68809 19.2703C4.82673 19.409 4.82673 19.6347 4.68809 19.7734ZM11.9706 23.0227C11.7744 23.0227 11.6148 22.8631 11.6148 22.667C11.6148 22.4709 11.7744 22.3113 11.9706 22.3113C12.1668 22.3113 12.3263 22.4709 12.3263 22.667C12.3263 22.8631 12.1668 23.0227 11.9706 23.0227ZM19.7734 19.8151C19.7062 19.8822 19.6169 19.9193 19.5219 19.9193C19.4269 19.9193 19.3375 19.8823 19.2703 19.8151C19.1837 19.7285 19.1512 19.6079 19.1727 19.4958L19.4542 19.2143C19.4763 19.2101 19.4989 19.2077 19.5219 19.2077C19.6169 19.2077 19.7063 19.2447 19.7734 19.3119C19.9121 19.4507 19.9121 19.6764 19.7734 19.8151ZM17.0702 16.4207L14.7059 14.0564C14.5151 13.8655 14.2057 13.8656 14.0149 14.0564C13.8241 14.2472 13.8241 14.5566 14.0149 14.7474L16.3762 17.1087C15.3076 18.0254 13.9492 18.6131 12.4593 18.714V15.3674C12.4593 15.0976 12.2405 14.8788 11.9706 14.8788C11.7008 14.8788 11.482 15.0976 11.482 15.3674V18.7103C9.99441 18.5965 8.64069 17.9968 7.57931 17.0702L9.94366 14.7059C10.1345 14.5151 10.1345 14.2057 9.94366 14.0149C9.75283 13.8241 9.44342 13.8241 9.25266 14.0149L6.89138 16.3762C5.9747 15.3076 5.38697 13.9492 5.28605 12.4593H8.63255C8.90241 12.4593 9.12119 12.2405 9.12119 11.9706C9.12119 11.7008 8.90241 11.482 8.63255 11.482H5.2897C5.40352 9.99441 6.00324 8.64069 6.92982 7.57931L9.29416 9.94366C9.38954 10.039 9.51463 10.0868 9.63966 10.0868C9.76468 10.0868 9.88978 10.0391 9.98516 9.94366C10.176 9.75283 10.176 9.44342 9.98516 9.25266L7.62388 6.89138C8.69249 5.9747 10.0509 5.38697 11.5408 5.28605V8.63255H12.518V5.2897C14.0056 5.40345 15.3594 6.00324 16.4207 6.92982L14.0565 9.2941C13.8656 9.48493 13.8656 9.79433 14.0565 9.98509C14.1518 10.0805 14.2769 10.1282 14.402 10.1282C14.527 10.1282 14.6521 10.0805 14.7475 9.98509L17.1087 7.62388C18.0254 8.69249 18.6131 10.0509 18.714 11.5408H15.3674C15.0975 11.5408 14.8787 11.7596 14.8787 12.0294C14.8787 12.2993 15.0975 12.518 15.3674 12.518H18.7102C18.5965 14.0057 17.9968 15.3594 17.0702 16.4207ZM22.667 12.3852C22.4708 12.3852 22.3113 12.2256 22.3113 12.0295C22.3113 11.8333 22.4709 11.6737 22.667 11.6737C22.8631 11.6737 23.0227 11.8333 23.0227 12.0295C23.0227 12.2256 22.8631 12.3852 22.667 12.3852Z" fill="#F6DB56"/>
<path d="M15.8246 19.8796C15.7213 19.6303 15.4354 19.5119 15.1862 19.6152C14.9369 19.7184 14.8185 20.0043 14.9217 20.2536L15.545 21.7584C15.623 21.9466 15.8049 22.0602 15.9967 22.0602C16.059 22.0602 16.1224 22.0482 16.1835 22.0228C16.4328 21.9196 16.5512 21.6337 16.4479 21.3844L15.8246 19.8796Z" fill="#F6DB56"/>
<path d="M21.7809 15.4906L20.2761 14.8673C20.0267 14.7641 19.741 14.8825 19.6377 15.1318C19.5345 15.3811 19.6528 15.6669 19.9022 15.7702L21.407 16.3935C21.4682 16.4189 21.5315 16.4308 21.5938 16.4308C21.7855 16.4308 21.9675 16.3172 22.0454 16.1291C22.1487 15.8797 22.0303 15.5939 21.7809 15.4906Z" fill="#F6DB56"/>
<path d="M19.6152 8.8138C19.6931 9.00195 19.8751 9.11558 20.0668 9.11558C20.1292 9.11558 20.1925 9.10359 20.2536 9.07825L21.7584 8.45494C22.0077 8.35168 22.1261 8.06586 22.0228 7.81653C21.9196 7.56719 21.6337 7.44881 21.3844 7.55208L19.8796 8.17538C19.6303 8.27864 19.5119 8.56446 19.6152 8.8138Z" fill="#F6DB56"/>
<path d="M15.1318 4.36233C15.193 4.38768 15.2563 4.39966 15.3186 4.39966C15.5103 4.39966 15.6923 4.28604 15.7702 4.09788L16.3935 2.59308C16.4968 2.34375 16.3784 2.05793 16.1291 1.95466C15.8796 1.8514 15.5938 1.96978 15.4906 2.21911L14.8673 3.72391C14.7641 3.97318 14.8825 4.25907 15.1318 4.36233Z" fill="#F6DB56"/>
<path d="M8.17539 4.12036C8.25331 4.30852 8.43528 4.42214 8.62702 4.42214C8.68937 4.42214 8.75269 4.41015 8.8138 4.38481C9.06314 4.28154 9.18152 3.99566 9.07825 3.74639L8.45495 2.24159C8.35175 1.99226 8.0658 1.87388 7.81653 1.97714C7.5672 2.0804 7.44882 2.36629 7.55208 2.61556L8.17539 4.12036Z" fill="#F6DB56"/>
<path d="M2.21905 8.50934L3.72385 9.13265C3.78503 9.15799 3.84836 9.16998 3.91064 9.16998C4.10238 9.16998 4.28435 9.05636 4.36227 8.8682C4.46554 8.61886 4.34716 8.33304 4.09782 8.22978L2.59302 7.60648C2.34362 7.50328 2.05787 7.62159 1.9546 7.87093C1.85134 8.12026 1.96972 8.40608 2.21905 8.50934Z" fill="#F6DB56"/>
<path d="M4.38482 15.1862C4.28155 14.9369 3.99567 14.8185 3.7464 14.9217L2.2416 15.545C1.99226 15.6483 1.87388 15.9342 1.97715 16.1835C2.05507 16.3716 2.23704 16.4852 2.42878 16.4852C2.49113 16.4852 2.55445 16.4733 2.61557 16.4479L4.12037 15.8246C4.3697 15.7213 4.48808 15.4355 4.38482 15.1862Z" fill="#F6DB56"/>
<path d="M8.8682 19.6377C8.6188 19.5345 8.33305 19.6528 8.22978 19.9022L7.60648 21.407C7.50322 21.6563 7.6216 21.9421 7.87093 22.0454C7.93211 22.0707 7.99543 22.0827 8.05772 22.0827C8.24946 22.0827 8.43143 21.9691 8.50935 21.7809L9.13265 20.2761C9.23592 20.0268 9.11754 19.7409 8.8682 19.6377Z" fill="#F6DB56"/>
</g>
<defs>
<clipPath id="clip0_1_371">
<rect width="24" height="24" fill="white"/>
</clipPath>
</defs>
</svg>
