<svg width="36" height="37" viewBox="0 0 36 37" fill="none" xmlns="http://www.w3.org/2000/svg">
<path fill-rule="evenodd" clip-rule="evenodd" d="M20.1213 3.6675L32.8324 16.3787C34.004 17.5502 34.004 19.4497 32.8324 20.6213L20.1213 33.3324C18.9497 34.504 17.0502 34.504 15.8786 33.3324L3.16749 20.6213C1.99592 19.4497 1.99592 17.5502 3.16749 16.3787L15.8786 3.6675C17.0502 2.49593 18.9497 2.49593 20.1213 3.6675ZM18 5.78882L5.28881 18.5L18 31.2111L30.7111 18.5L18 5.78882ZM18 22.625C19.0714 22.625 19.875 23.417 19.875 24.497C19.875 25.577 19.0714 26.369 18 26.369C16.9042 26.369 16.125 25.577 16.125 24.473C16.125 23.417 16.9285 22.625 18 22.625ZM19.5 11V20H16.5V11H19.5Z" fill="#F6DB56" fill-opacity="0.7"/>
</svg>
