<svg width="24" height="25" viewBox="0 0 24 25" fill="none" xmlns="http://www.w3.org/2000/svg">
<path d="M8.34277 15.0899C8.80861 14.5903 9.37187 14.1915 9.9978 13.918C10.6237 13.6446 11.2995 13.5025 11.9826 13.5001C12.6656 13.4977 13.3419 13.6353 13.9697 13.9044C14.5975 14.1735 15.1637 14.5683 15.633 15.0646M6.14941 12.0439C6.89476 11.2446 7.79597 10.6066 8.79745 10.169C9.79893 9.73148 10.8793 9.50389 11.9721 9.50007C13.065 9.49626 14.1466 9.71651 15.1511 10.147C16.1556 10.5776 17.0617 11.2094 17.8127 12.0035M3.22363 9.31635C4.34165 8.11742 5.69347 7.16028 7.19569 6.50398C8.69791 5.84768 10.3179 5.5058 11.9572 5.50007C13.5966 5.49435 15.2208 5.82472 16.7276 6.47052C18.2344 7.11632 19.5931 8.06458 20.7195 9.25568M12 19.5001C11.4477 19.5001 11 19.0524 11 18.5001C11 17.9478 11.4477 17.5001 12 17.5001C12.5523 17.5001 13 17.9478 13 18.5001C13 19.0524 12.5523 19.5001 12 19.5001Z" stroke="#F6DB56" stroke-width="2" stroke-linecap="round" stroke-linejoin="round"/>
</svg>
